# xmcd CD database file
#
# Track frame offsets:
#	150
#	11221
#	28845
#	40734
#	58658
#	73222
#	94911
#	115907
#	127280
#	139264
#	157745
#	176265
#	195138
#	228421
#	251480
#
# Disc length: 3554 seconds
#
# Revision: 0
# Processed by: cddbd v1.5.2PL0 Copyright (c) Steve Scherf et al.
# Submitted via: CDex 1.70beta2
#
DISCID=cd0de00f
DTITLE=Alexa Rodrian - All Done and Dusted
DYEAR=2008
DGENRE=Jazz
TTITLE0=No Use
TTITLE1=Eleanor Ribgy
TTITLE2=Shiver Me Timbers
TTITLE3=Miss Bitch
TTITLE4=Afro Blue
TTITLE5=Gelsomina
TTITLE6=Lose
TTITLE7=Sleepless
TTITLE8=Little John
TTITLE9=Ain't No Sunshine
TTITLE10=Pearl
TTITLE11=He Is Writing Again
TTITLE12=Fisher's Song
TTITLE13=Fly
TTITLE14=Miss Bitch (Radio Edit)
EXTD=YEAR: 2008
EXTT0=
EXTT1=
EXTT2=
EXTT3=
EXTT4=
EXTT5=
EXTT6=
EXTT7=
EXTT8=
EXTT9=
EXTT10=
EXTT11=
EXTT12=
EXTT13=
EXTT14=
PLAYORDER=
